<svg xmlns="http://www.w3.org/2000/svg" xmlns:xlink="http://www.w3.org/1999/xlink" width="500" zoomAndPan="magnify" viewBox="0 0 375 374.999991" height="500" preserveAspectRatio="xMidYMid meet" version="1.0"><defs><clipPath id="af737cf420"><path d="M 68 80 L 307 80 L 307 295 L 68 295 Z M 68 80 " clip-rule="nonzero"/></clipPath><clipPath id="f899b89d55"><path d="M 68.628906 224.628906 L 163.628906 64.816406 L 306.679688 149.855469 L 211.675781 309.664062 Z M 68.628906 224.628906 " clip-rule="nonzero"/></clipPath><clipPath id="5b21554654"><path d="M 199.089844 86.582031 C 179.328125 74.835938 153.804688 81.347656 142.089844 101.050781 L 68.628906 224.628906 L 140.152344 267.148438 L 161.390625 231.421875 C 149.652344 251.164062 156.191406 276.683594 175.914062 288.40625 C 195.679688 300.15625 221.203125 293.640625 232.914062 273.941406 L 306.351562 150.402344 L 234.828125 107.882812 L 213.589844 143.609375 C 225.328125 123.867188 218.8125 98.308594 199.089844 86.582031 Z M 199.089844 86.582031 " clip-rule="nonzero"/></clipPath><clipPath id="81645a6509"><path d="M 0.398438 0 L 238.480469 0 L 238.480469 215 L 0.398438 215 Z M 0.398438 0 " clip-rule="nonzero"/></clipPath><clipPath id="07d943a677"><path d="M 0.628906 144.628906 L 95.628906 -15.183594 L 238.679688 69.855469 L 143.675781 229.664062 Z M 0.628906 144.628906 " clip-rule="nonzero"/></clipPath><clipPath id="5355fdb679"><path d="M 131.089844 6.582031 C 111.328125 -5.164062 85.804688 1.347656 74.089844 21.050781 L 0.628906 144.628906 L 72.152344 187.148438 L 93.390625 151.421875 C 81.652344 171.164062 88.191406 196.683594 107.914062 208.40625 C 127.679688 220.15625 153.203125 213.640625 164.914062 193.941406 L 238.351562 70.402344 L 166.828125 27.882812 L 145.589844 63.609375 C 157.328125 43.867188 150.8125 18.308594 131.089844 6.582031 Z M 131.089844 6.582031 " clip-rule="nonzero"/></clipPath><clipPath id="85a8479c8f"><path d="M 0.628906 144.628906 L 95.296875 -14.625 L 238.347656 70.414062 L 143.675781 229.664062 Z M 0.628906 144.628906 " clip-rule="nonzero"/></clipPath><clipPath id="faccbe7247"><path d="M 0.625 144.632812 L 95.328125 -14.671875 L 238.375 70.363281 L 143.675781 229.667969 Z M 0.625 144.632812 " clip-rule="nonzero"/></clipPath><linearGradient x1="-99.863591" gradientTransform="matrix(0.332176, -0.558783, 0.558783, 0.332176, 0.625996, 144.632089)" y1="128" x2="384.943761" gradientUnits="userSpaceOnUse" y2="128" id="38b7d2fc27"><stop stop-opacity="1" stop-color="rgb(100%, 39.99939%, 76.858521%)" offset="0"/><stop stop-opacity="1" stop-color="rgb(100%, 87.060547%, 34.899902%)" offset="1"/></linearGradient></defs><g clip-path="url(#af737cf420)"><g clip-path="url(#f899b89d55)"><g clip-path="url(#5b21554654)"><path fill="url(#38b7d2fc27)" d="M 68.628906 64.816406 L 306.679688 64.816406 L 306.679688 309.664062 L 68.628906 309.664062 Z M 68.628906 64.816406 " fill-rule="nonzero"/></g></g></g></svg>
